<mxfile host="Electron" agent="Mozilla/5.0 (Windows NT 10.0; Win64; x64) AppleWebKit/537.36 (KHTML, like Gecko) draw.io/25.0.2 Chrome/128.0.6613.186 Electron/32.2.5 Safari/537.36" version="25.0.2">
  <diagram name="Page-1" id="-nA2T5xnxQFJdslZD9j_">
    <mxGraphModel dx="819" dy="592" grid="1" gridSize="10" guides="1" tooltips="1" connect="1" arrows="1" fold="1" page="1" pageScale="1" pageWidth="1169" pageHeight="827" math="0" shadow="0">
      <root>
        <mxCell id="0" />
        <mxCell id="1" parent="0" />
        <mxCell id="tVICXMrIzCc9GeWt51wL-39" style="edgeStyle=orthogonalEdgeStyle;rounded=0;orthogonalLoop=1;jettySize=auto;html=1;entryX=0;entryY=0.5;entryDx=0;entryDy=0;endArrow=none;endFill=0;" edge="1" parent="1" source="tVICXMrIzCc9GeWt51wL-1" target="tVICXMrIzCc9GeWt51wL-3">
          <mxGeometry relative="1" as="geometry" />
        </mxCell>
        <mxCell id="tVICXMrIzCc9GeWt51wL-1" value="打面" style="rounded=0;whiteSpace=wrap;html=1;" vertex="1" parent="1">
          <mxGeometry x="120" y="40" width="100" height="40" as="geometry" />
        </mxCell>
        <mxCell id="tVICXMrIzCc9GeWt51wL-42" style="edgeStyle=orthogonalEdgeStyle;rounded=0;orthogonalLoop=1;jettySize=auto;html=1;entryX=0.5;entryY=1;entryDx=0;entryDy=0;endArrow=none;endFill=0;" edge="1" parent="1" source="tVICXMrIzCc9GeWt51wL-2" target="tVICXMrIzCc9GeWt51wL-1">
          <mxGeometry relative="1" as="geometry" />
        </mxCell>
        <mxCell id="tVICXMrIzCc9GeWt51wL-2" value="スナッピー" style="rounded=0;whiteSpace=wrap;html=1;" vertex="1" parent="1">
          <mxGeometry x="120" y="160" width="100" height="40" as="geometry" />
        </mxCell>
        <mxCell id="tVICXMrIzCc9GeWt51wL-40" style="edgeStyle=orthogonalEdgeStyle;rounded=0;orthogonalLoop=1;jettySize=auto;html=1;endArrow=none;endFill=0;" edge="1" parent="1" source="tVICXMrIzCc9GeWt51wL-3" target="tVICXMrIzCc9GeWt51wL-4">
          <mxGeometry relative="1" as="geometry" />
        </mxCell>
        <mxCell id="tVICXMrIzCc9GeWt51wL-44" style="rounded=0;orthogonalLoop=1;jettySize=auto;html=1;exitX=0;exitY=1;exitDx=0;exitDy=0;entryX=1;entryY=0;entryDx=0;entryDy=0;endArrow=none;endFill=0;" edge="1" parent="1" source="tVICXMrIzCc9GeWt51wL-3" target="tVICXMrIzCc9GeWt51wL-2">
          <mxGeometry relative="1" as="geometry" />
        </mxCell>
        <mxCell id="tVICXMrIzCc9GeWt51wL-3" value="胴" style="rounded=0;whiteSpace=wrap;html=1;" vertex="1" parent="1">
          <mxGeometry x="300" y="40" width="100" height="40" as="geometry" />
        </mxCell>
        <mxCell id="tVICXMrIzCc9GeWt51wL-41" style="edgeStyle=orthogonalEdgeStyle;rounded=0;orthogonalLoop=1;jettySize=auto;html=1;entryX=1;entryY=0.5;entryDx=0;entryDy=0;endArrow=none;endFill=0;" edge="1" parent="1" source="tVICXMrIzCc9GeWt51wL-4" target="tVICXMrIzCc9GeWt51wL-2">
          <mxGeometry relative="1" as="geometry" />
        </mxCell>
        <mxCell id="tVICXMrIzCc9GeWt51wL-4" value="裏面" style="rounded=0;whiteSpace=wrap;html=1;" vertex="1" parent="1">
          <mxGeometry x="300" y="160" width="100" height="40" as="geometry" />
        </mxCell>
        <mxCell id="tVICXMrIzCc9GeWt51wL-43" style="rounded=0;orthogonalLoop=1;jettySize=auto;html=1;exitX=1;exitY=1;exitDx=0;exitDy=0;entryX=0;entryY=0;entryDx=0;entryDy=0;endArrow=none;endFill=0;" edge="1" parent="1" source="tVICXMrIzCc9GeWt51wL-1" target="tVICXMrIzCc9GeWt51wL-4">
          <mxGeometry relative="1" as="geometry" />
        </mxCell>
        <mxCell id="tVICXMrIzCc9GeWt51wL-49" style="edgeStyle=orthogonalEdgeStyle;rounded=0;orthogonalLoop=1;jettySize=auto;html=1;entryX=0;entryY=0.5;entryDx=0;entryDy=0;endArrow=none;endFill=0;" edge="1" parent="1" source="tVICXMrIzCc9GeWt51wL-45" target="tVICXMrIzCc9GeWt51wL-47">
          <mxGeometry relative="1" as="geometry" />
        </mxCell>
        <mxCell id="tVICXMrIzCc9GeWt51wL-45" value="打面" style="rounded=0;whiteSpace=wrap;html=1;" vertex="1" parent="1">
          <mxGeometry x="120" y="280" width="100" height="40" as="geometry" />
        </mxCell>
        <mxCell id="tVICXMrIzCc9GeWt51wL-51" style="edgeStyle=orthogonalEdgeStyle;rounded=0;orthogonalLoop=1;jettySize=auto;html=1;entryX=0;entryY=0.5;entryDx=0;entryDy=0;endArrow=none;endFill=0;" edge="1" parent="1" source="tVICXMrIzCc9GeWt51wL-46" target="tVICXMrIzCc9GeWt51wL-48">
          <mxGeometry relative="1" as="geometry" />
        </mxCell>
        <mxCell id="tVICXMrIzCc9GeWt51wL-46" value="裏面" style="rounded=0;whiteSpace=wrap;html=1;" vertex="1" parent="1">
          <mxGeometry x="400" y="280" width="100" height="40" as="geometry" />
        </mxCell>
        <mxCell id="tVICXMrIzCc9GeWt51wL-50" style="edgeStyle=orthogonalEdgeStyle;rounded=0;orthogonalLoop=1;jettySize=auto;html=1;entryX=0;entryY=0.5;entryDx=0;entryDy=0;endArrow=none;endFill=0;" edge="1" parent="1" source="tVICXMrIzCc9GeWt51wL-47" target="tVICXMrIzCc9GeWt51wL-46">
          <mxGeometry relative="1" as="geometry" />
        </mxCell>
        <mxCell id="tVICXMrIzCc9GeWt51wL-47" value="胴" style="rounded=0;whiteSpace=wrap;html=1;" vertex="1" parent="1">
          <mxGeometry x="260" y="280" width="100" height="40" as="geometry" />
        </mxCell>
        <mxCell id="tVICXMrIzCc9GeWt51wL-48" value="スナッピー" style="rounded=0;whiteSpace=wrap;html=1;" vertex="1" parent="1">
          <mxGeometry x="540" y="280" width="100" height="40" as="geometry" />
        </mxCell>
      </root>
    </mxGraphModel>
  </diagram>
</mxfile>
